<svg width="15" height="13" viewBox="0 0 15 13" fill="none" xmlns="http://www.w3.org/2000/svg">
<path d="M1.22649 0.0707753C1.16409 0.0699705 1.10227 0.0828345 1.04537 0.108464C0.988469 0.134094 0.93787 0.171868 0.897123 0.219134C0.856376 0.266401 0.826469 0.322014 0.809503 0.382068C0.792536 0.442123 0.788921 0.505163 0.798911 0.566764L2.61397 11.5854C2.63659 11.7202 2.70599 11.8428 2.80999 11.9316C2.91399 12.0203 3.04593 12.0696 3.18265 12.0707H11.8902C11.9927 12.072 12.0923 12.0365 12.1708 11.9706C12.2492 11.9046 12.3014 11.8127 12.3178 11.7115L14.1329 0.568902C14.1429 0.507301 14.1393 0.444261 14.1223 0.384206C14.1053 0.324151 14.0754 0.268539 14.0347 0.221272C13.9939 0.174006 13.9433 0.136232 13.8864 0.110602C13.8295 0.0849724 13.7677 0.0721083 13.7053 0.0729131L1.22649 0.0707753ZM8.86941 8.03438H6.09017L5.33763 4.10282H9.54285L8.86941 8.03438Z" fill="#2684FF"/>
<path d="M13.5556 4.10284H9.54285L8.86941 8.03441H6.09017L2.80852 11.9296C2.91253 12.0196 3.04515 12.0696 3.18265 12.0707H11.8924C11.9949 12.072 12.0944 12.0365 12.1729 11.9706C12.2514 11.9047 12.3036 11.8127 12.32 11.7116L13.5556 4.10284Z" fill="url(#paint0_linear_1205_11)"/>
<defs>
<linearGradient id="paint0_linear_1205_11" x1="14.4835" y1="5.20385" x2="7.85178" y2="10.3797" gradientUnits="userSpaceOnUse">
<stop offset="0.18" stop-color="#0052CC"/>
<stop offset="1" stop-color="#2684FF"/>
</linearGradient>
</defs>
</svg>
