<svg width="12" height="12" viewBox="0 0 12 12" fill="none" xmlns="http://www.w3.org/2000/svg">
<path d="M7.41423 6.00006L11.6569 1.75738C11.7498 1.66452 11.8234 1.55428 11.8737 1.43295C11.9239 1.31163 11.9498 1.18159 11.9498 1.05027C11.9498 0.918947 11.9239 0.788912 11.8737 0.667587C11.8234 0.546263 11.7497 0.436025 11.6569 0.343169C11.564 0.250312 11.4538 0.176656 11.3324 0.126404C11.2111 0.0761521 11.0811 0.0502897 10.9498 0.050293C10.8184 0.0502962 10.6884 0.0761651 10.5671 0.126423C10.4458 0.176681 10.3355 0.250343 10.2427 0.343204L6.00005 4.58581L1.75744 0.343204C1.66459 0.250343 1.55435 0.176681 1.43303 0.126423C1.3117 0.0761651 1.18167 0.0502962 1.05034 0.050293C0.919022 0.0502897 0.788985 0.0761521 0.667658 0.126404C0.546331 0.176656 0.43609 0.250312 0.343229 0.343169C0.250368 0.436025 0.176705 0.546263 0.126448 0.667587C0.0761899 0.788912 0.050321 0.918947 0.0503178 1.05027C0.0503145 1.18159 0.0761773 1.31163 0.126429 1.43295C0.176681 1.55428 0.250338 1.66452 0.343194 1.75738L4.58587 6.00006L0.343194 10.2427C0.250333 10.3355 0.176672 10.4458 0.126416 10.5671C0.0761597 10.6884 0.050293 10.8185 0.050293 10.9498C0.050293 11.0811 0.0761597 11.2112 0.126416 11.3325C0.176672 11.4538 0.250333 11.5641 0.343194 11.6569C0.530735 11.8445 0.785095 11.9498 1.05032 11.9498C1.18164 11.9498 1.31168 11.924 1.43301 11.8737C1.55434 11.8234 1.66458 11.7498 1.75744 11.6569L6.00005 7.41424L10.2427 11.6569C10.4302 11.8445 10.6846 11.9498 10.9498 11.9498C11.215 11.9498 11.4694 11.8445 11.6569 11.6569C11.8445 11.4694 11.9498 11.215 11.9498 10.9498C11.9498 10.6846 11.8445 10.4302 11.6569 10.2427L7.41423 6.00006Z" fill="black"/>
</svg>
