<svg width="20" height="19" viewBox="0 0 20 19" fill="none" xmlns="http://www.w3.org/2000/svg">
<path d="M6.09327 13.3425C6.11584 13.0061 6.00283 12.6749 5.77951 12.4226L2.95695 9.21366L5.77951 6.00475C6.07879 5.66454 6.17377 5.19042 6.02876 4.76095C5.88375 4.33165 5.52065 4.01234 5.07617 3.92322C4.63187 3.83412 4.17376 3.9889 3.8745 4.32911L0.31545 8.37571C0.112169 8.60746 0 8.90521 0 9.21362C0 9.52202 0.112169 9.81978 0.31545 10.0515L3.8745 14.0981C4.09631 14.3514 4.40974 14.5062 4.74573 14.5281C5.08173 14.55 5.41269 14.4373 5.66565 14.2148C5.91844 13.9924 6.07222 13.6785 6.09327 13.3425Z" fill="#282c34"/>
<path d="M19.6846 8.37607L16.1255 4.32947C15.8263 3.98926 15.3682 3.8345 14.9239 3.92358C14.4794 4.01267 14.1163 4.33199 13.9713 4.76131C13.8263 5.19078 13.9213 5.66488 14.2205 6.0051L17.0431 9.21401L14.2205 12.4229C13.9213 12.7631 13.8263 13.2372 13.9713 13.6667C14.1163 14.096 14.4794 14.4153 14.9239 14.5045C15.3682 14.5935 15.8263 14.4388 16.1255 14.0986L19.6846 10.052C19.8879 9.82021 20 9.52246 20 9.21405C20 8.90565 19.8879 8.60789 19.6846 8.37615V8.37607Z" fill="#282c34"/>
<path d="M14.242 0.120909C13.9369 -0.0229198 13.5867 -0.0390883 13.2694 0.0759394C12.9523 0.19114 12.6939 0.427938 12.5519 0.73414L5.14424 16.6213C4.96134 17.0142 4.99148 17.4734 5.22424 17.8392C5.457 18.2048 5.86002 18.4266 6.29355 18.4273C6.53405 18.4275 6.7695 18.3596 6.97296 18.2314C7.17641 18.1031 7.33927 17.92 7.44283 17.7029L14.8578 1.81573C15.0023 1.50955 15.0187 1.1584 14.903 0.840075C14.7874 0.521762 14.5495 0.262888 14.2421 0.120909H14.242Z" fill="#282c34"/>
</svg>
