<svg width="10" height="13" viewBox="0 0 10 13" fill="none" xmlns="http://www.w3.org/2000/svg">
<path d="M2.5 13.0002C3.88 13.0002 5 12.0295 5 10.8335V8.66687H2.5C1.12 8.66687 0 9.63754 0 10.8335C0 12.0295 1.12 13.0002 2.5 13.0002Z" fill="#0ACF83"/>
<path d="M0 6.4998C0 5.3038 1.12 4.33313 2.5 4.33313H5V8.66646H2.5C1.12 8.66646 0 7.6958 0 6.4998Z" fill="#A259FF"/>
<path d="M0 2.16667C0 0.970667 1.12 0 2.5 0H5V4.33333H2.5C1.12 4.33333 0 3.36267 0 2.16667Z" fill="#F24E1E"/>
<path d="M5 0H7.5C8.88 0 10 0.970667 10 2.16667C10 3.36267 8.88 4.33333 7.5 4.33333H5V0Z" fill="#FF7262"/>
<path d="M10 6.4998C10 7.6958 8.88 8.66646 7.5 8.66646C6.12 8.66646 5 7.6958 5 6.4998C5 5.3038 6.12 4.33313 7.5 4.33313C8.88 4.33313 10 5.3038 10 6.4998Z" fill="#1ABCFE"/>
</svg>
