<svg width="18" height="23" viewBox="0 0 18 23" fill="none" xmlns="http://www.w3.org/2000/svg">
<path d="M5.59953 19.0741C3.43705 17.1414 1.97449 15.2905 1.28739 13.4757C1.28739 13.4757 1.07626 12.9003 1.05014 12.7207C0.988743 12.2987 1.02873 9.76396 1.01684 6.81306C1.00494 3.86216 1.00256 0.917114 1.00256 0.917114H17.0055L16.9776 6.74536C16.9499 12.5546 16.9491 12.5755 16.7602 13.1469C16.0593 15.2665 14.0454 17.8177 11.4298 19.8993C10.6544 20.5164 10.5336 20.611 8.98634 21.6522C6.92657 20.3407 6.6325 20.0201 5.59953 19.0741Z" fill="#502D0E"/>
<path d="M10.7291 17.5926C11.5607 17.1468 12.2339 16.8989 13.5476 16.8989L13.5474 10.7769C11.9094 10.6667 11.4082 10.6843 10.489 10.9081C10.0524 11.0144 9.19841 11.2883 9.13612 11.9366C9.12256 12.0778 9.11772 12.1745 9.11772 12.3146L8.84404 12.316C8.8439 12.1735 8.84295 12.0972 8.82185 11.9268C8.75038 11.3496 8.2527 11.1052 7.76568 10.9704C6.67198 10.6677 5.52749 10.7153 4.42706 10.7786L4.42273 16.8765C4.65571 16.8765 4.91256 16.8841 4.95864 16.8884C6.07634 16.9928 7.11686 17.4161 8.17127 18.1877L8.84326 18.7212L8.84359 16.5104L9.12087 16.5103L9.12814 18.7295C9.12814 18.7295 9.23599 18.6215 9.6173 18.3174C9.97851 18.0293 10.4097 17.7638 10.7291 17.5926Z" fill="white"/>
<path d="M8.36872 22.349C7.16427 21.6082 5.9402 20.7591 4.65619 19.5012C2.66586 17.5514 1.29923 15.9604 0.627265 14.3059C-0.154785 12.3803 0.0209275 13.5844 0.00908791 6.55416C0.00307775 2.9755 0.00908791 0 0.00908791 0H17.9971L18 6.4356C18.0029 12.9464 17.7828 13.1583 17.7635 13.2339C17.2639 15.1957 15.4378 18.0847 11.1477 21.305C10.4447 21.8327 9.24635 22.5693 8.9883 22.7097C8.7849 22.5994 8.68396 22.5429 8.36872 22.349ZM10.4492 21.2375C12.3099 19.9081 13.1489 19.1269 14.3515 17.8096C15.5284 16.5206 16.4953 15.0898 16.9604 13.9214C17.4754 12.6276 17.4563 13.1978 17.456 6.42276L17.4558 0.458612L0.503074 0.458616C0.503074 0.458616 0.521934 3.51269 0.507151 6.56056C0.492369 9.60845 0.51037 12.0116 0.51123 12.082C0.524174 13.1521 1.15999 14.4401 1.41458 14.8665C2.40115 16.5188 3.71316 18.2398 6.73289 20.6577C7.51086 21.2806 8.85377 22.1024 8.98694 22.1785C9.1337 22.1007 10.3263 21.3253 10.4492 21.2375Z" fill="#502D0E"/>
<path d="M7.0523 14.1781C6.9209 13.9473 6.8659 13.6982 6.90121 13.4618C7.03036 12.597 8.0537 12.2966 8.83634 13.0002L8.98343 13.1324L9.12842 13.0004C9.90309 12.2951 10.9537 12.5911 11.0601 13.4578C11.0903 13.7034 11.0106 13.9857 10.9067 14.1958C10.7162 14.581 10.085 15.079 9.38086 15.6448L8.98595 15.9622L8.60261 15.6459C7.84332 15.0194 7.29968 14.6128 7.0523 14.1781Z" fill="#CE1126"/>
<path d="M9.9386 20.6175C10.3586 20.3217 11.1028 19.7078 11.705 19.2016C12.4184 18.6021 12.7538 18.2736 12.7538 18.2736L10.5434 18.275C10.2914 18.4488 10.1478 18.5529 9.49076 19.1075C9.32817 19.2447 8.98647 19.5762 8.98647 19.5762C8.98647 19.5762 8.67285 19.2495 8.4657 19.0711C7.90715 18.59 7.76049 18.4972 7.41097 18.2682L5.2124 18.274C5.2124 18.274 5.89105 18.9184 6.27638 19.2464C7.5654 20.3436 7.96989 20.6005 8.98546 21.2775C9.19058 21.1316 9.51858 20.9134 9.9386 20.6175Z" fill="#FFCF49"/>
<path d="M13.6462 17.3387C12.4587 17.3408 11.9413 17.4568 11.2063 17.8872L13.0917 17.8851L13.6462 17.3387Z" fill="white"/>
<path d="M14.5478 16.2759L14.5477 11.655L14.0856 11.6549L14.0965 16.8341L14.5478 16.2759Z" fill="white"/>
<path d="M15.7366 14.5615C16.412 13.3202 16.5814 12.7611 16.5814 11.69V10.7775H14.083V11.2406L14.9158 11.2361L14.9168 15.8418C14.9656 15.7666 15.4354 15.115 15.7366 14.5615Z" fill="#FFCF49"/>
<path d="M4.60068 10.2895C4.83139 10.2753 5.07647 10.2775 5.40678 10.269C5.40678 10.269 5.42302 10.1505 5.44938 10.0564C5.11199 10.0716 4.86211 10.0843 4.527 10.0679C3.47899 10.0169 3.11949 9.9249 2.68278 9.5818C2.34418 9.31578 2.11599 8.98298 2.02775 8.57234C1.98678 8.38168 2.04823 8.20636 2.04823 8.20636C2.04823 8.20636 2.10618 8.41334 2.30128 8.55213C2.47025 8.67233 2.70466 8.7851 2.82133 8.83361C2.93005 8.87881 3.02614 8.89811 3.15631 8.90994C3.21791 8.91554 3.54199 8.90506 3.882 8.86166C4.63469 8.76557 5.03347 8.84669 5.39258 9.16894L5.64734 9.39755C5.71402 9.2354 5.79716 9.06268 5.87963 8.88706L3.76824 6.20135L5.05566 7.04328L6.62665 8.07066C6.70872 8.00052 6.92034 7.84454 7.04046 7.77992C7.04046 7.77992 6.97602 7.7246 6.62593 7.31972C6.04141 6.64373 5.84041 6.16519 5.83944 5.63467C5.83849 5.11795 6.0088 4.77838 6.26424 4.46936C6.32919 4.39079 6.41369 4.30884 6.54214 4.27427C6.54214 4.27427 6.49055 4.43153 6.46783 4.56062C6.38967 5.00484 6.56052 5.41519 7.12589 5.95741C7.75019 6.55615 7.83729 6.74209 7.83729 7.10349C7.83729 7.35236 7.82044 7.25298 7.85321 7.42501C8.03662 7.3706 8.2218 7.33783 8.3793 7.31765C8.3846 7.19307 8.96557 3.89497 8.98947 3.98287C9.28313 5.06319 9.37569 6.22792 9.62106 7.31792C9.62106 7.31792 9.99926 7.38015 10.1691 7.43337C10.1691 7.43337 10.1617 7.31824 10.1691 7.04969C10.1888 6.33007 10.4399 5.75803 10.7536 5.36056C11.1025 4.9185 11.4663 4.66959 11.9595 4.64984C12.3175 4.63551 12.3759 4.7407 12.3759 4.7407C12.3759 4.7407 12.2527 4.8151 12.1149 4.92955C11.6185 5.34207 11.5848 5.62093 11.5848 6.35326C11.6603 7.3517 11.2158 7.50771 10.9526 7.74569C11.112 7.86189 11.2311 7.95481 11.373 8.09669L14.2063 6.19128C14.2273 6.19128 12.1773 8.79487 12.083 8.92424C12.1893 9.05229 12.2779 9.19061 12.3499 9.30578C12.6873 9.02923 13.0387 8.74528 13.4442 8.548C13.8639 8.34385 14.6253 8.28503 15.0358 8.40641C15.6158 8.57789 15.8362 8.87116 15.9319 9.06145C15.7929 9.04606 15.6474 9.00352 15.467 9.01069C14.9392 9.03165 14.7289 9.08802 14.0831 9.59799C13.5702 10.003 13.1451 10.1493 12.6813 10.1561C12.6841 10.2104 12.6899 10.2467 12.691 10.274C12.9075 10.2797 13.1522 10.2897 13.4626 10.3145C13.6624 10.3306 13.8513 10.3402 13.9777 10.3518C14.1752 10.193 14.3098 10.0814 14.5107 9.94778C15.1642 9.51321 15.5577 9.43327 16.0828 9.7439C16.2137 9.82132 16.2717 9.8535 16.3637 9.91441C16.4401 9.79073 16.5059 9.71859 16.5793 9.48111C16.6997 9.09126 16.5294 8.66614 16.0834 8.24333C15.5886 7.77426 14.9476 7.58449 14.2535 7.70158C13.9995 7.74444 13.7808 7.77052 13.7676 7.75955L16.0295 4.45253L12.2013 6.57346C12.1055 6.57346 12.2466 5.73298 12.383 5.49076C12.5183 5.2507 12.9435 5.11618 13.285 5.04474L13.4477 5.01071L13.4052 4.81739C13.3437 4.53792 12.9596 4.19839 12.5388 4.10034C12.2971 4.044 12.0882 4.04765 11.7926 4.06493C11.1658 4.10156 10.7009 4.3415 10.2952 4.87097C10.2267 4.96036 10.0856 5.09106 9.99893 5.19295L8.9859 1.50818L7.83644 5.73267C7.7686 5.73267 7.31533 5.21794 7.18459 4.99244C7.13135 4.90062 7.08779 4.75052 7.08779 4.65889C7.08779 4.45533 7.40013 3.97436 7.54619 3.85825C7.45505 3.75803 7.34679 3.70407 7.06543 3.66301C6.45033 3.57325 5.67002 3.97315 5.34085 4.67547C5.18722 5.00326 5.17128 5.24445 5.19488 5.57692C5.21413 5.85202 5.26005 6.23548 5.29464 6.31314L1.96749 4.44724L4.48122 8.15057C4.46597 8.16457 4.13073 8.18515 3.73625 8.19631C2.86812 8.22085 2.63348 8.10303 2.42806 7.53941L2.29582 7.17659L2.0061 7.35428C1.47801 7.67814 1.29552 8.31327 1.51666 9.05764C1.71472 9.72431 2.46675 10.2965 3.87657 10.4329L3.87666 10.3373C4.06266 10.3191 4.32265 10.3066 4.60068 10.2895Z" fill="#FFCF49"/>
<path d="M3.87714 11.2349V10.7775L1.33997 10.7758L1.34137 11.6694C1.34336 12.9301 1.76674 13.837 2.61493 15.2014L2.96545 15.7652L3.00957 11.2361L3.87714 11.2349Z" fill="#FFCF49"/>
<path d="M3.88759 11.6566L3.41772 11.6595L3.41898 16.3566L3.88319 16.897L3.88759 11.6566Z" fill="white"/>
<path d="M6.69453 17.8848C5.84988 17.4828 5.59995 17.3395 4.31262 17.3375L4.86684 17.885L6.69453 17.8848Z" fill="white"/>
<path d="M9.4647 10.7646C9.98506 10.5131 10.4413 10.3988 11.1178 10.3126C11.3392 10.2843 11.6147 10.2671 11.8386 10.267C11.8421 9.73614 11.307 8.98254 10.8671 8.61348C9.80922 7.72611 8.26836 7.73826 7.12021 8.6018C6.77285 8.86305 6.17155 9.71455 6.17175 10.2655C6.4888 10.2725 6.79334 10.2861 7.04232 10.3297C7.66252 10.4382 8.00203 10.5246 8.40981 10.7223C8.71323 10.8694 8.87838 10.9775 8.98826 11.0553C9.10085 10.9772 9.23373 10.8763 9.4647 10.7646Z" fill="#FFCF49"/>
</svg>
