<svg width="15" height="14" viewBox="0 0 15 14" fill="none" xmlns="http://www.w3.org/2000/svg">
<path d="M11.875 0H3.125C1.39938 0 0 1.30608 0 2.91667V11.0833C0 12.6939 1.39938 14 3.125 14H11.875C13.6013 14 15 12.6939 15 11.0833V2.91667C15 1.30608 13.6013 0 11.875 0ZM5 11.0833H3.125V4.66667H5V11.0833ZM4.0625 3.927C3.45875 3.927 2.96875 3.46617 2.96875 2.898C2.96875 2.32983 3.45875 1.869 4.0625 1.869C4.66625 1.869 5.15625 2.32983 5.15625 2.898C5.15625 3.46617 4.66688 3.927 4.0625 3.927ZM12.5 11.0833H10.625V7.81433C10.625 5.84967 8.125 5.99842 8.125 7.81433V11.0833H6.25V4.66667H8.125V5.69625C8.9975 4.18775 12.5 4.07633 12.5 7.14058V11.0833Z" fill="#293241"/>
</svg>
