<svg width="30" height="30" viewBox="0 0 30 30" fill="none" xmlns="http://www.w3.org/2000/svg">
<path fill-rule="evenodd" clip-rule="evenodd" d="M25.6667 0.5C24.0333 0 22.5333 0 19.5333 0H10.4667C7.46667 0 5.93333 0 4.33333 0.533333C2.56667 1.16667 1.16667 2.56667 0.5 4.33333C0 5.96667 0 7.46667 0 10.4667V19.5333C0 22.5667 0 24.0667 0.533333 25.6667C1.16667 27.4667 2.56667 28.8333 4.33333 29.5C5.96667 30 7.46667 30 10.4667 30H19.5333H19.5334C22.5333 30 24.0667 30 25.7 29.4667C27.4667 28.8333 28.8667 27.4333 29.5 25.6667C30 24.0333 30 22.5333 30 19.5333V10.4667V10.4666C30 7.46666 30 5.93333 29.4667 4.3C28.8333 2.53333 27.4333 1.13333 25.6667 0.5ZM24.5667 21.5167C24.5917 21.5083 24.6167 21.5 24.6333 21.5L18.7333 15.5667L17.4667 16.8667C16.1 18.2667 13.9333 18.2667 12.5667 16.8667L11.3 15.5667L5.36667 21.5C5.4 21.5333 5.46667 21.5333 5.5 21.5333H24.5C24.5167 21.5333 24.5417 21.525 24.5667 21.5167ZM25 9.10001V20.8667V21L19.0667 15.0667C19.0667 15.0667 24.9333 9 24.9667 8.93334C25 8.96667 25 9.03334 25 9.10001ZM5 9.16667V20.9C5 20.9333 5 21 5.03333 21.0333L10.9333 15.1333C10.9333 15.1333 5.06667 9.06667 5.03333 9.00001C5 9.03334 5 9.10001 5 9.16667ZM17.1 16.2667L24.6667 8.53334C24.6667 8.53334 5.33333 8.50001 5.36667 8.53334L12.9333 16.2667C14.0667 17.4333 15.9333 17.4333 17.1 16.2667Z" fill="#293241"/>
</svg>
