<svg width="256" height="171" viewBox="0 0 256 171" fill="none" xmlns="http://www.w3.org/2000/svg">
<path d="M0 0H256V170.669H0V0Z" fill="#F0F0F0"/>
<path d="M0 21.3315H256V42.663H0V21.3315ZM0 64H256V85.3315H0V64ZM0 106.663H256V127.995H0V106.663ZM0 149.331H256V170.663H0V149.331Z" fill="#D80027"/>
<path d="M0 0H128V91.8985H0V0Z" fill="#2E52B2"/>
<path d="M49.911 37.6465L47.8495 43.9885H41.1815L46.577 47.906L44.5155 54.2475L49.911 50.33L55.303 54.2475L53.242 47.906L58.6375 43.9885H51.969L49.911 37.6465ZM51.969 66.8745L49.911 60.533L47.8495 66.8745H41.1815L46.577 70.7925L44.5155 77.134L49.911 73.216L55.303 77.134L53.242 70.7925L58.6375 66.8745H51.969ZM23.7885 66.8745L21.73 60.533L19.6685 66.8745H13.0005L18.396 70.7925L16.3345 77.134L21.73 73.216L27.1225 77.134L25.0615 70.7925L30.456 66.8745H23.7885ZM21.73 37.6465L19.6685 43.9885H13.0005L18.396 47.906L16.3345 54.2475L21.73 50.33L27.1225 54.2475L25.0615 47.906L30.456 43.9885H23.7885L21.73 37.6465ZM49.911 14.7595L47.8495 21.102H41.1815L46.577 25.02L44.5155 31.3615L49.911 27.4435L55.303 31.3615L53.242 25.02L58.6375 21.102H51.969L49.911 14.7595ZM21.73 14.7595L19.6685 21.102H13.0005L18.396 25.02L16.3345 31.3615L21.73 27.4435L27.1225 31.3615L25.0615 25.02L30.456 21.102H23.7885L21.73 14.7595ZM78.0915 37.6465L76.0305 43.9885H69.3625L74.7575 47.906L72.697 54.2475L78.0915 50.33L83.4845 54.2475L81.423 47.906L86.8185 43.9885H80.1505L78.0915 37.6465ZM80.1505 66.8745L78.0915 60.533L76.0305 66.8745H69.3625L74.7575 70.7925L72.697 77.134L78.0915 73.216L83.4845 77.134L81.423 70.7925L86.8185 66.8745H80.1505ZM108.331 66.8745L106.273 60.533L104.212 66.8745H97.544L102.939 70.7925L100.878 77.134L106.273 73.216L111.665 77.134L109.604 70.7925L114.999 66.8745H108.331ZM106.273 37.6465L104.212 43.9885H97.544L102.939 47.906L100.878 54.2475L106.273 50.33L111.665 54.2475L109.604 47.906L114.999 43.9885H108.331L106.273 37.6465ZM78.0915 14.7595L76.0305 21.102H69.3625L74.7575 25.02L72.697 31.3615L78.0915 27.4435L83.4845 31.3615L81.423 25.02L86.8185 21.102H80.1505L78.0915 14.7595ZM106.273 14.7595L104.212 21.102H97.544L102.939 25.02L100.878 31.3615L106.273 27.4435L111.665 31.3615L109.604 25.02L114.999 21.102H108.331L106.273 14.7595Z" fill="#F0F0F0"/>
</svg>
