<svg width="200" height="200" viewBox="0 0 200 200" fill="none" xmlns="http://www.w3.org/2000/svg">
<rect width="200" height="200" fill="#F1F1F1"/>
<path d="M40.0239 147.517C39.637 146.959 39.136 146.506 38.5604 146.195C37.9849 145.883 37.3504 145.72 36.707 145.719C33.3465 145.719 31.3286 148.151 31.3286 151.699C31.3286 155.247 33.3465 157.679 36.707 157.679C37.3486 157.668 37.9797 157.501 38.5538 157.189C39.1279 156.878 39.6303 156.431 40.0239 155.881L44.4609 160.938C42.3556 163.271 39.2652 164.098 36.711 164.098C29.9899 164.098 24.6155 159.235 24.6155 151.699C24.6155 144.163 29.9939 139.3 36.711 139.3C39.2652 139.3 42.3556 140.128 44.4609 142.46L40.0239 147.517Z" fill="#00837E"/>
<path d="M67.4889 159.434C65.3398 162.4 61.7965 164.103 58.305 164.103C51.5839 164.103 46.2095 159.239 46.2095 151.704C46.2095 144.167 51.5879 139.304 58.305 139.304C64.5772 139.304 68.5216 144.167 68.5216 151.704V153.988H52.9265C53.4628 156.761 55.3893 158.558 57.9911 158.558C60.1879 158.558 61.6654 157.343 62.7856 155.691L67.4889 159.434ZM61.8084 149.026C61.8215 148.435 61.7238 147.846 61.5212 147.297C61.3186 146.748 61.0155 146.249 60.63 145.83C60.2443 145.412 59.7847 145.083 59.2785 144.863C58.7724 144.643 58.2303 144.537 57.6852 144.551C54.73 144.551 53.1131 146.741 52.9186 149.026H61.8084Z" fill="#00837E"/>
<path d="M72.6841 126.752H79.4052V163.514H72.6841V126.752Z" fill="#00837E"/>
<path d="M104.851 159.434C102.702 162.4 99.1591 164.103 95.6676 164.103C88.9464 164.103 83.572 159.239 83.572 151.704C83.572 144.167 88.9503 139.304 95.6676 139.304C101.928 139.3 105.9 144.163 105.9 151.699V153.984H90.293C90.8293 156.756 92.7559 158.554 95.3576 158.554C97.5543 158.554 99.032 157.338 100.152 155.687L104.851 159.434ZM99.1472 149.026C99.1603 148.435 99.0626 147.846 98.86 147.297C98.6572 146.748 98.3541 146.249 97.9686 145.83C97.5831 145.412 97.1233 145.083 96.6172 144.863C96.111 144.643 95.5691 144.537 95.024 144.551C92.0686 144.551 90.452 146.741 90.2572 149.026H99.1472Z" fill="#00837E"/>
<path d="M110.587 126.752H117.308V142.41H117.396C118.921 140.126 121.519 139.298 124.296 139.298C130.48 139.298 134.226 145.334 134.226 151.891C134.226 159.039 129.968 164.096 123.501 164.096C120.454 164.096 117.857 162.104 116.824 160.402H116.736V163.514H110.587V126.752ZM122.147 157.681C125.507 157.681 127.525 155.25 127.525 151.701C127.525 148.153 125.507 145.722 122.147 145.722C118.786 145.722 116.768 148.153 116.768 151.701C116.768 155.25 118.786 157.681 122.147 157.681Z" fill="#00837E"/>
<path d="M138.182 139.886H144.903V143.68H144.991C146.425 140.813 148.307 139.304 151.263 139.304C152.016 139.28 152.769 139.361 153.503 139.545V146.206C152.573 145.898 151.608 145.734 150.635 145.719C145.527 145.719 144.899 148.926 144.899 153.647V163.52H138.182V139.886Z" fill="#00837E"/>
<path d="M167.303 128.502C173.131 128.502 177.921 131.662 177.921 137.987C177.921 141.733 175.935 144.553 172.547 145.622V145.721C176.356 146.838 178.461 149.804 178.461 154.085C178.461 160.746 173.174 164.105 167.303 164.105C161.432 164.105 156.149 160.724 156.149 154.081C156.149 149.8 158.255 146.833 162.064 145.717V145.635C158.66 144.566 156.686 141.755 156.686 138C156.686 131.662 161.48 128.502 167.303 128.502ZM167.303 157.388C169.945 157.388 171.74 155.443 171.74 153.076C171.74 150.709 169.949 148.7 167.303 148.7C164.658 148.7 162.866 150.645 162.866 153.076C162.866 155.508 164.662 157.388 167.303 157.388ZM167.303 142.846C169.635 142.846 171.2 141.143 171.2 139.004C171.2 136.866 169.631 135.21 167.303 135.21C164.976 135.21 163.407 136.913 163.407 139.004C163.407 141.095 164.976 142.85 167.303 142.85V142.846Z" fill="#086057"/>
<path d="M75.0515 117.301L128.677 85.8886C128.794 85.8202 128.893 85.7223 128.967 85.6032C129.041 85.4838 129.087 85.3468 129.102 85.2041C129.116 85.0611 129.099 84.9165 129.05 84.7828C129.002 84.649 128.924 84.5299 128.824 84.4358L95.9497 53.6747C95.8491 53.581 95.7292 53.5151 95.6002 53.4827C95.471 53.4504 95.3367 53.4525 95.2085 53.489C95.0803 53.5255 94.9623 53.5952 94.8645 53.6921C94.7666 53.789 94.6919 53.9103 94.6467 54.0455L73.8956 116.214C73.8388 116.383 73.8308 116.567 73.8725 116.741C73.9141 116.915 74.0034 117.072 74.1287 117.189C74.254 117.307 74.4095 117.381 74.5742 117.401C74.739 117.421 74.9055 117.386 75.0515 117.301Z" fill="#00837E"/>
<mask id="mask0_1707_33" style="mask-type:alpha" maskUnits="userSpaceOnUse" x="73" y="53" width="57" height="65">
<path d="M75.0515 117.301L128.677 85.8886C128.794 85.8202 128.893 85.7223 128.967 85.6032C129.041 85.4838 129.087 85.3468 129.102 85.2041C129.116 85.0611 129.099 84.9165 129.05 84.7828C129.002 84.649 128.924 84.5299 128.824 84.4358L95.9497 53.6747C95.8491 53.581 95.7292 53.5151 95.6002 53.4827C95.471 53.4504 95.3367 53.4525 95.2085 53.489C95.0803 53.5255 94.9623 53.5952 94.8645 53.6921C94.7666 53.789 94.6919 53.9103 94.6467 54.0455L73.8956 116.214C73.8388 116.383 73.8308 116.567 73.8725 116.741C73.9141 116.915 74.0034 117.072 74.1287 117.189C74.254 117.307 74.4095 117.381 74.5742 117.401C74.739 117.421 74.9055 117.386 75.0515 117.301Z" fill="#00837E"/>
</mask>
<g mask="url(#mask0_1707_33)">
<path d="M86.4158 104.909C88.0369 104.909 89.3512 103.482 89.3512 101.723C89.3512 99.963 88.0369 98.5366 86.4158 98.5366C84.7945 98.5366 83.4802 99.963 83.4802 101.723C83.4802 103.482 84.7945 104.909 86.4158 104.909Z" fill="#EFCB5B"/>
<path d="M94.881 77.2273C95.9273 77.2273 96.7757 76.3067 96.7757 75.1709C96.7757 74.035 95.9273 73.1143 94.881 73.1143C93.8345 73.1143 92.9861 74.035 92.9861 75.1709C92.9861 76.3067 93.8345 77.2273 94.881 77.2273Z" fill="#EFCB5B"/>
<path d="M104.713 74.1318C109.473 74.1318 113.333 69.9432 113.333 64.7765C113.333 59.6095 109.473 55.4209 104.713 55.4209C99.9521 55.4209 96.093 59.6095 96.093 64.7765C96.093 69.9432 99.9521 74.1318 104.713 74.1318Z" fill="#086057"/>
<path d="M126.417 92.5476C130.743 92.5476 134.25 88.7413 134.25 84.0457C134.25 79.3503 130.743 75.5439 126.417 75.5439C122.091 75.5439 118.584 79.3503 118.584 84.0457C118.584 88.7413 122.091 92.5476 126.417 92.5476Z" fill="#EFCB5B"/>
<path d="M107.632 87.1003C109.507 87.1003 111.028 85.4499 111.028 83.414C111.028 81.3784 109.507 79.728 107.632 79.728C105.756 79.728 104.235 81.3784 104.235 83.414C104.235 85.4499 105.756 87.1003 107.632 87.1003Z" fill="#086057"/>
<path d="M75.29 120.955C77.9577 120.955 80.1203 118.608 80.1203 115.713C80.1203 112.817 77.9577 110.47 75.29 110.47C72.6224 110.47 70.4597 112.817 70.4597 115.713C70.4597 118.608 72.6224 120.955 75.29 120.955Z" fill="#086057"/>
<path d="M105.797 105.677C109.381 105.677 112.287 102.523 112.287 98.6325C112.287 94.7418 109.381 91.5879 105.797 91.5879C102.212 91.5879 99.3059 94.7418 99.3059 98.6325C99.3059 102.523 102.212 105.677 105.797 105.677Z" fill="#086057"/>
<path d="M85.2919 92.088C88.6418 92.088 91.3575 89.1405 91.3575 85.5048C91.3575 81.8689 88.6418 78.9214 85.2919 78.9214C81.9418 78.9214 79.2263 81.8689 79.2263 85.5048C79.2263 89.1405 81.9418 92.088 85.2919 92.088Z" fill="#086057"/>
</g>
<path d="M105.213 55.3905C105.213 55.3905 106.404 48.0613 105.356 43.9915L110.575 40.5425C110.575 40.5425 111.572 49.7686 109.463 54.1316L105.213 55.3905Z" fill="#EFCB5B"/>
<path d="M120.271 47.4959C120.271 47.4959 124.16 38.9208 128.319 37.4248L134.139 40.2832C134.139 40.2832 127.926 42.4647 125.431 46.7501L120.271 47.4959Z" fill="#00837E"/>
<path fill-rule="evenodd" clip-rule="evenodd" d="M128.344 36.9229L135.326 40.3528L134.271 40.7234L134.268 40.7245L134.256 40.7288C134.245 40.7327 134.229 40.7387 134.207 40.7468C134.163 40.763 134.097 40.7877 134.012 40.8208C133.842 40.887 133.594 40.9869 133.289 41.1202C132.679 41.387 131.839 41.7867 130.923 42.3176C129.078 43.3869 126.981 44.9569 125.794 46.9961L125.687 47.1802L119.532 48.0699L119.887 47.2876L120.272 47.4932C119.887 47.2876 119.887 47.2877 119.887 47.2876L119.888 47.2854L119.89 47.2802L119.899 47.2606C119.907 47.2435 119.918 47.2185 119.934 47.186C119.964 47.1212 120.009 47.0265 120.067 46.9059C120.183 46.6648 120.353 46.3197 120.571 45.9014C121.005 45.0653 121.628 43.9336 122.384 42.753C123.139 41.5738 124.031 40.3366 125.006 39.295C125.977 38.2582 127.055 37.3863 128.184 36.9801L128.344 36.9229ZM121.036 46.9131L125.179 46.3141C126.501 44.1611 128.685 42.5587 130.519 41.4962C131.468 40.946 132.337 40.5325 132.969 40.2563C132.983 40.2501 132.997 40.2439 133.011 40.2378L128.299 37.9234C127.399 38.2891 126.486 39.0206 125.608 39.9586C124.685 40.9456 123.825 42.1327 123.088 43.2843C122.352 44.4345 121.743 45.54 121.318 46.3586C121.212 46.5627 121.118 46.7488 121.036 46.9131Z" fill="#00837E"/>
<path d="M124.049 70.2664C124.049 70.2664 129.463 63.9933 134.139 63.6958V70.2664C134.139 70.2664 129.094 71.5209 127.477 72.8143L124.049 70.2664Z" fill="#EFCB5B"/>
<path d="M125.587 59.2199C125.587 59.2199 122.409 62.7939 119.156 65.8204L118.758 62.5396L122.333 57.7583L125.587 59.2199Z" fill="#00837E"/>
<path fill-rule="evenodd" clip-rule="evenodd" d="M122.202 57.1982L126.333 59.054L125.895 59.5462L125.587 59.2228C125.895 59.5462 125.895 59.546 125.895 59.5462L125.886 59.5569L125.858 59.5879C125.834 59.6152 125.798 59.6553 125.751 59.7076C125.657 59.8119 125.519 59.964 125.344 60.156C124.994 60.5401 124.493 61.0833 123.891 61.7215C122.686 62.9968 121.071 64.6545 119.435 66.1768L118.834 66.7364L118.309 62.4046L122.202 57.1982ZM124.836 59.3894L122.465 58.3242L119.208 62.6804L119.477 64.9043C120.884 63.5637 122.243 62.1656 123.292 61.0548C123.89 60.4211 124.387 59.8817 124.734 59.501C124.77 59.4621 124.804 59.425 124.836 59.3894Z" fill="#00837E"/>
</svg>
