<svg width="11" height="11" viewBox="0 0 11 11" fill="none" xmlns="http://www.w3.org/2000/svg">
<path d="M10.9158 0.0949593C10.8546 0.0345226 10.7676 5.71568e-05 10.6764 2.88045e-06H0.324925C0.146271 -0.000702712 0.000793552 0.128312 5.05838e-06 0.288183C-5.5595e-05 0.297709 0.000429774 0.307207 0.00143055 0.316678L0.971884 9.57983C0.984409 9.69867 1.07715 9.79843 1.20543 9.8311L5.7342 10.989C5.76344 10.9964 5.79373 11.0001 5.82412 11C5.85881 11 5.89333 10.9951 5.92635 10.9855L9.80817 9.82763C9.92993 9.79137 10.0162 9.69416 10.0281 9.57983L10.9986 0.316678C11.0071 0.235671 10.977 0.155179 10.9158 0.0949593Z" fill="#2196F3"/>
<path d="M5.80308 8.6984C5.77296 8.69824 5.743 8.69436 5.71407 8.68689L3.44044 8.11154C3.32884 8.08341 3.24267 8.00466 3.21438 7.90498L2.88956 6.75426C2.84212 6.60104 2.94392 6.44276 3.11691 6.40074C3.28989 6.35872 3.46861 6.44888 3.51605 6.6021C3.51739 6.60638 3.51858 6.61067 3.51967 6.61501L3.79899 7.60462L5.80302 8.11208L7.77781 7.61209L8.36245 2.94537H2.55498C2.37559 2.94537 2.23016 2.81657 2.23016 2.65769C2.23016 2.49881 2.37559 2.37 2.55498 2.37H8.72625C8.90563 2.36903 9.05191 2.49706 9.05301 2.65593C9.05307 2.6671 9.05243 2.67824 9.05103 2.68932L8.40143 7.86752C8.38669 7.98349 8.29431 8.08009 8.16757 8.11205L5.89394 8.6874C5.86444 8.6949 5.8338 8.69859 5.80308 8.6984Z" fill="#FAFAFA"/>
<path d="M8.40151 5.2459H2.87987C2.70048 5.2459 2.55505 5.1171 2.55505 4.95822C2.55505 4.79934 2.70048 4.67053 2.87987 4.67053H8.40151C8.58089 4.67053 8.72632 4.79934 8.72632 4.95822C8.72632 5.1171 8.58089 5.2459 8.40151 5.2459Z" fill="#FAFAFA"/>
</svg>
