<svg width="511" height="512" viewBox="0 0 511 512" fill="none" xmlns="http://www.w3.org/2000/svg">
<path d="M486.876 0H294.566C281.312 0 270.566 10.7452 270.566 24V216.31C270.566 229.565 281.312 240.31 294.566 240.31H486.876C500.131 240.31 510.876 229.565 510.876 216.31V24C510.876 10.7452 500.131 0 486.876 0Z" fill="#FCA253"/>
<path d="M215.116 254.73V68.5001C215.118 64.6667 214.364 60.8705 212.896 57.3289C211.429 53.7872 209.278 50.5696 206.566 47.8601C201.092 42.3862 193.668 39.311 185.926 39.311C178.185 39.311 170.761 42.3862 165.286 47.8601L16.1764 197C5.8185 207.364 0 221.417 0 236.07C0 250.723 5.8185 264.776 16.1764 275.14L236.886 495.82C247.251 506.178 261.304 511.997 275.956 511.997C290.609 511.997 304.662 506.178 315.026 495.82L464.136 346.71C469.61 341.236 472.686 333.812 472.686 326.07C472.686 318.329 469.61 310.904 464.136 305.43L462.996 304.31C460.287 301.598 457.069 299.447 453.528 297.98C449.986 296.513 446.19 295.759 442.356 295.76H256.146C250.757 295.764 245.42 294.705 240.44 292.645C235.46 290.584 230.936 287.562 227.125 283.752C223.314 279.941 220.292 275.416 218.232 270.436C216.171 265.457 215.112 260.119 215.116 254.73Z" fill="#FCA253"/>
</svg>
