<svg width="10" height="10" viewBox="0 0 10 10" fill="none" xmlns="http://www.w3.org/2000/svg">
<path d="M10 0H0V10H10V0Z" fill="#F7DF1E"/>
<path d="M6.37353 7.8741C6.56455 8.22554 6.81309 8.48386 7.25264 8.48386C7.6219 8.48386 7.85779 8.27591 7.85779 7.98859C7.85779 7.64428 7.61543 7.52233 7.20899 7.32201L6.9862 7.21431C6.34312 6.90562 5.91591 6.5189 5.91591 5.70137C5.91591 4.94829 6.42516 4.375 7.22103 4.375C7.78764 4.375 8.19498 4.59719 8.48852 5.17896L7.79456 5.68101C7.64177 5.37232 7.47694 5.25071 7.22103 5.25071C6.96001 5.25071 6.79457 5.43728 6.79457 5.68101C6.79457 5.98225 6.96016 6.1042 7.34251 6.29077L7.5653 6.3983C8.32248 6.76416 8.75 7.13714 8.75 7.9757C8.75 8.87973 8.11972 9.375 7.27327 9.375C6.44563 9.375 5.91094 8.93062 5.64931 8.34817L6.37353 7.8741ZM3.22542 7.96111C3.36542 8.24097 3.49277 8.47758 3.79895 8.47758C4.09174 8.47758 4.27645 8.34851 4.27645 7.84662V4.43233H5.1676V7.86019C5.1676 8.89992 4.62659 9.37313 3.83689 9.37313C3.12336 9.37313 2.71014 8.95708 2.5 8.45596L3.22542 7.96111Z" fill="#293241"/>
</svg>
