<svg width="6" height="11" viewBox="0 0 6 11" fill="none" xmlns="http://www.w3.org/2000/svg">
<path d="M5.89005 4.37915C5.18651 1.82214 3.52381 0.981385 3.34477 0.660169C3.14898 0.433544 2.95058 0.0304555 2.95058 0.0304555C2.94732 0.0236478 2.9421 0.0116448 2.93601 0C2.91578 0.226625 2.90533 0.31405 2.64515 0.542646C2.24226 0.802055 0.175146 2.23042 0.00698427 5.13552C-0.149866 7.84499 2.38366 9.45949 2.72629 9.66533L2.76523 9.68808V9.68611C2.76741 9.69973 2.87401 10.3311 2.94884 11H3.21729C3.28028 10.5271 3.37469 10.0575 3.5001 9.59313L3.52185 9.58149C3.67512 9.49099 3.82124 9.39256 3.95934 9.28679L3.975 9.27514C4.70334 8.72103 6.01274 7.43939 5.99991 5.396C5.99719 5.05514 5.96045 4.71505 5.89005 4.37915ZM2.92034 8.13557C2.92034 8.13557 2.92034 4.33543 3.07262 4.33615C3.1914 4.33615 3.34521 9.23788 3.34521 9.23788C3.13376 9.21692 2.92034 8.43117 2.92034 8.13557Z" fill="#13AA52"/>
</svg>
