<svg width="129" height="146" viewBox="0 0 129 146" fill="none" xmlns="http://www.w3.org/2000/svg">
<path d="M64.4986 145.364C62.5519 145.364 60.6186 144.854 58.9119 143.871L41.1293 133.343C38.4733 131.858 39.7693 131.332 40.6453 131.03C44.1866 129.79 44.9053 129.51 48.6853 127.363C49.0826 127.136 49.6026 127.216 50.0092 127.456L63.6706 135.563C64.1639 135.83 64.8639 135.83 65.3212 135.563L118.588 104.816C119.081 104.536 119.401 103.963 119.401 103.376V41.9099C119.401 41.2966 119.081 40.7499 118.577 40.4433L65.3319 9.72332C64.8386 9.42998 64.1852 9.42998 63.6919 9.72332L10.4573 40.4433C9.94132 40.7366 9.61332 41.3099 9.61332 41.8966V103.363C9.61332 103.95 9.93332 104.51 10.44 104.79L25.0266 113.216C32.9466 117.176 37.7866 112.51 37.7866 107.816V47.1499C37.7866 46.2832 38.4666 45.6166 39.3333 45.6166H46.0799C46.9199 45.6166 47.6133 46.2832 47.6133 47.1499V107.843C47.6133 118.403 41.8533 124.47 31.8399 124.47C28.76 124.47 26.3333 124.47 19.56 121.136L5.58666 113.083C2.13333 111.083 0 107.35 0 103.363V41.8966C0 37.8966 2.13333 34.1633 5.58666 32.1899L58.9066 1.43C62.2799 -0.476666 66.7599 -0.476666 70.1065 1.43L123.36 32.2033C126.8 34.1899 128.946 37.9099 128.946 41.9099V103.376C128.946 107.363 126.8 111.083 123.36 113.083L70.1065 143.843C68.3999 144.83 66.4666 145.336 64.4932 145.336" fill="#689F63"/>
<path fill-rule="evenodd" clip-rule="evenodd" d="M53 83.3186C53 92.2919 57.8867 102.991 81.1933 102.991L81.116 103.053C97.9959 103.053 107.676 96.3999 107.676 84.7999C107.676 73.2933 99.9026 70.2266 83.5293 68.0533C66.996 65.8666 65.316 64.7333 65.316 60.8533C65.316 57.6533 66.7427 53.3866 78.996 53.3866C89.9426 53.3866 93.9693 55.7466 95.6359 63.12C95.7826 63.8133 96.4093 64.32 97.1293 64.32H104.049C104.476 64.32 104.889 64.1333 105.183 63.8266C105.476 63.5066 105.636 63.08 105.596 62.64C104.529 49.92 96.0759 44 79.0226 44C63.836 44 54.7693 50.4 54.7693 61.1466C54.7693 72.8133 63.7827 76.0266 78.3693 77.4666C95.8093 79.1733 97.1693 81.7199 97.1693 85.1466C97.1693 91.0999 92.3959 93.6359 81.1693 93.6359C67.076 93.6359 63.9826 90.0999 62.9426 83.0893C62.8226 82.3386 62.1827 81.7852 61.4227 81.7852H54.5427C53.688 81.7852 53 82.4653 53 83.3186Z" fill="#689F63"/>
</svg>
