<svg width="15" height="13" viewBox="0 0 15 13" fill="none" xmlns="http://www.w3.org/2000/svg">
<path d="M7.5 7.64584C8.16902 7.64584 8.71136 7.13271 8.71136 6.49974C8.71136 5.86676 8.16902 5.35364 7.5 5.35364C6.83098 5.35364 6.28864 5.86676 6.28864 6.49974C6.28864 7.13271 6.83098 7.64584 7.5 7.64584Z" fill="#61DAFB"/>
<path d="M7.5 8.84795C11.0899 8.84795 14 7.79667 14 6.49984C14 5.20302 11.0899 4.15173 7.5 4.15173C3.91015 4.15173 1 5.20302 1 6.49984C1 7.79667 3.91015 8.84795 7.5 8.84795Z" stroke="#61DAFB"/>
<path d="M5.35066 7.674C7.14558 10.6154 9.56294 12.4742 10.75 11.8258C11.937 11.1774 11.4442 8.2673 9.64929 5.32589C7.85437 2.38448 5.43701 0.525642 4.24997 1.17405C3.06294 1.82247 3.55573 4.73259 5.35066 7.674Z" stroke="#61DAFB"/>
<path d="M5.35066 5.32605C3.55573 8.26746 3.06294 11.1776 4.24998 11.826C5.43701 12.4744 7.85437 10.6156 9.64929 7.67416C11.4442 4.73275 11.937 1.82262 10.75 1.17421C9.56294 0.5258 7.14558 2.38464 5.35066 5.32605Z" stroke="#61DAFB"/>
</svg>
