<svg width="590" height="701" viewBox="0 0 590 701" fill="none" xmlns="http://www.w3.org/2000/svg">
<path d="M299.275 418.5C287.25 424.025 274.075 431.225 247.7 445.7C237.7 451.325 227.25 456.95 217.525 462.25C216.85 461.575 216.15 460.725 215.475 460.025C163.3 404.275 66.8 364.9 70.9 290.025C72.425 262.75 81.8 191.15 256.225 104.2C399.775 33.45 514 53.05 533.725 96.525C562.075 158.5 472.5 273.825 324.25 290.55C307.842 293.878 290.896 293.476 274.665 289.374C258.433 285.272 243.331 277.574 230.475 266.85C222.625 258.325 221.45 257.825 218.55 259.525C213.775 262.025 216.85 269.75 218.55 274.175C224.205 284.414 231.855 293.415 241.049 300.646C250.242 307.877 260.792 313.191 272.075 316.275C330.415 328.885 391.242 322.86 445.975 299.05C535.825 264.275 605.975 167.6 585.425 86.55C564.8 4.37497 428.4 -22.725 299.35 23.125C218.532 50.3598 143.863 93.2327 79.6 149.3C8.50003 215.8 -2.74996 273.6 1.85004 297.8C18.4 383.725 136.85 439.65 184.35 481.075C181.85 482.45 179.75 483.575 177.875 484.65C154.175 496.425 63.825 543.65 41.3 593.6C15.725 650.2 45.4 690.775 65 696.225C94.5372 703.3 125.547 700.974 153.698 689.572C181.849 678.17 205.737 658.261 222.025 632.625C235.857 611.367 244.35 587.083 246.784 561.838C249.217 536.593 245.517 511.134 236 487.625C241.615 483.146 247.604 479.156 253.9 475.7C266 468.55 277.525 461.5 287.75 456.05C322.76 439.651 360.965 431.208 399.625 431.325C480.775 440.875 496.8 491.5 493.725 512.825C492.286 520.391 489.244 527.561 484.802 533.853C480.361 540.144 474.623 545.412 467.975 549.3C462.35 552.875 460.475 554.075 460.975 556.625C461.65 560.375 464.375 560.2 469.15 559.525C481.342 555.672 492.084 548.22 499.963 538.15C507.843 528.08 512.492 515.861 513.3 503.1C515.8 453.1 468.125 398.25 383.725 398.75C358.453 398.793 333.434 403.779 310.075 413.425C306.325 414.975 302.683 416.642 299.15 418.425L299.275 418.5ZM178.65 614.475C151.7 643.8 114.2 654.875 98 645.5C80.5 635.5 87.425 592.125 120.5 561.1C140.089 543.45 161.262 527.642 183.75 513.875C187.675 511.375 193.475 508.075 200.45 503.875C201.65 503.2 202.325 502.85 202.325 502.85L206.425 500.35C212.324 520.128 212.861 541.118 207.98 561.171C203.1 581.224 192.978 599.62 178.65 614.475Z" fill="#CD6799"/>
</svg>
