<svg width="18" height="20" viewBox="0 0 18 20" fill="none" xmlns="http://www.w3.org/2000/svg">
<path d="M13.8072 16.548L17.0052 17.9842C17.4478 18.1832 17.9999 17.9328 17.9999 17.5327V15.0552C17.9999 14.5458 17.733 14.0591 17.2622 13.708L13.6325 11.0049C13.0348 12.9737 12.9922 14.84 13.8072 16.548Z" fill="#DDE7E5"/>
<path d="M4.19271 16.548L0.994747 17.9842C0.552073 18.1832 0 17.9328 0 17.5327V15.0552C0 14.5458 0.266855 14.0591 0.73766 13.708L4.36735 11.0049C5.1601 12.9504 5.1351 14.8017 4.19271 16.548Z" fill="#DDE7E5"/>
<path d="M10.6453 16.548H13.8073C13.9808 8.33996 12.4707 3.00129 9.48408 0.178149C9.23285 -0.0593831 8.76713 -0.0593831 8.5159 0.178149C5.52931 3.00129 4.01922 8.34026 4.19269 16.548H10.6453Z" fill="white"/>
<path d="M8.90542 8.77135C9.8609 8.77135 10.6355 8.16452 10.6355 7.41595C10.6355 6.66738 9.8609 6.06055 8.90542 6.06055C7.94993 6.06055 7.17535 6.66738 7.17535 7.41595C7.17535 8.16452 7.94993 8.77135 8.90542 8.77135Z" fill="#505050"/>
<path d="M8.99767 19.9999C8.80517 19.9999 8.64893 19.9338 8.64893 19.8519V17.5249C8.64893 17.4431 8.80517 17.377 8.99767 17.377C9.19018 17.377 9.34642 17.4431 9.34642 17.5249V19.8519C9.34642 19.9338 9.19018 19.9999 8.99767 19.9999Z" fill="#DDE7E5"/>
<path d="M7.43716 19.3555C7.22149 19.3555 7.04645 19.2186 7.04645 19.0494V17.6352C7.04645 17.4659 7.22149 17.3291 7.43716 17.3291C7.65283 17.3291 7.82787 17.4659 7.82787 17.6352V19.0494C7.82787 19.2186 7.65283 19.3555 7.43716 19.3555Z" fill="#DDE7E5"/>
<path d="M10.5628 19.3555C10.3467 19.3555 10.1721 19.2186 10.1721 19.0494V17.6352C10.1721 17.4659 10.3467 17.3291 10.5628 17.3291C10.7788 17.3291 10.9535 17.4659 10.9535 17.6352V19.0494C10.9535 19.2186 10.7788 19.3555 10.5628 19.3555Z" fill="#DDE7E5"/>
</svg>
