<svg width="11" height="8" viewBox="0 0 11 8" fill="none" xmlns="http://www.w3.org/2000/svg">
<path d="M1.11976 4.81673C1.11946 4.81692 1.11913 4.81704 1.11881 4.81726C0.99962 4.88172 0.947855 5.03065 0.999975 5.15954C1.05224 5.28886 1.19132 5.35449 1.31924 5.3102L4.92567 4.06164L4.25132 5.20752C4.20234 5.29077 4.2127 5.39779 4.27666 5.46921C4.34062 5.5406 4.44249 5.55889 4.52578 5.51384L5.23297 5.13145C5.25328 5.12049 5.27172 5.10611 5.28755 5.08886L7.38259 2.81166L9.96815 1.40784C10.9474 0.858569 10.8339 0.436334 10.7759 0.320043C10.7308 0.229867 10.6302 0.108956 10.4065 0.0450204C10.1797 -0.0198393 9.87314 -0.0146653 9.46967 0.0608503C9.33498 0.0860428 9.26063 0.0839177 9.1819 0.0816695C8.90514 0.0737853 8.7174 0.0930953 7.78527 0.597097L2.68708 3.35394L0.709981 2.28625C0.635426 2.246 0.546723 2.24603 0.472167 2.28637L0.139021 2.46654C0.0704439 2.50362 0.0214605 2.57073 0.00553713 2.64942C-0.0103862 2.72813 0.00843766 2.81012 0.0567996 2.87279L1.42905 4.65132L1.11976 4.81673Z" fill="#293241"/>
<path d="M10.5087 6.97729H0.856911C0.585504 6.97729 0.365479 7.20631 0.365479 7.48866C0.365479 7.77101 0.585504 8.00002 0.856911 8.00002H10.5087C10.7801 8.00002 11.0001 7.77107 11.0001 7.48866C11.0001 7.20621 10.7801 6.97729 10.5087 6.97729Z" fill="#293241"/>
</svg>
